HIERARCHY
ROOT Hips
{
	OFFSET -0.001795 -0.223333 0.028219
	CHANNELS 6 Xposition Yposition Zposition Zrotation Yrotation Xrotation 
	JOINT LeftUpLeg
	{
		OFFSET 0.069520 -0.091406 -0.006815
		CHANNELS 3 Zrotation Yrotation Xrotation
		JOINT LeftLeg
		{
			OFFSET 0.034277 -0.375199 -0.004496
			CHANNELS 3 Zrotation Yrotation Xrotation
			JOINT LeftFoot
			{
				OFFSET -0.013596 -0.397961 -0.043693
				CHANNELS 3 Zrotation Yrotation Xrotation
				JOINT LeftToe
				{
					OFFSET 0.026358 -0.055791 0.119288
					CHANNELS 3 Zrotation Yrotation Xrotation
					End Site
					{
						OFFSET 0.000000 0.000000 0.000000
					}
				}
			}
		}
	}
	JOINT RightUpLeg
	{
		OFFSET -0.067670 -0.090522 -0.004320
		CHANNELS 3 Zrotation Yrotation Xrotation
		JOINT RightLeg
		{
			OFFSET -0.038290 -0.382569 -0.008850
			CHANNELS 3 Zrotation Yrotation Xrotation
			JOINT RightFoot
			{
				OFFSET 0.015774 -0.398415 -0.042312
				CHANNELS 3 Zrotation Yrotation Xrotation
				JOINT RightToe
				{
					OFFSET -0.025372 -0.048144 0.123348
					CHANNELS 3 Zrotation Yrotation Xrotation
					End Site
					{
						OFFSET 0.000000 0.000000 0.000000
					}
				}
			}
		}
	}
	JOINT Spine
	{
		OFFSET -0.002533 0.108963 -0.026696
		CHANNELS 3 Zrotation Yrotation Xrotation
		JOINT Spine1
		{
			OFFSET 0.005487 0.135180 0.001092
			CHANNELS 3 Zrotation Yrotation Xrotation
			JOINT Spine2
			{
				OFFSET 0.001457 0.052922 0.025425
				CHANNELS 3 Zrotation Yrotation Xrotation
				JOINT Neck
				{
					OFFSET -0.002778 0.213870 -0.042857
					CHANNELS 3 Zrotation Yrotation Xrotation
					JOINT Head
					{
						OFFSET 0.005152 0.064970 0.051349
						CHANNELS 3 Zrotation Yrotation Xrotation
						End Site
						{
							OFFSET 0.000000 0.000000 0.000000
						}
					}
				}
				JOINT LeftShoulder
				{
					OFFSET 0.078845 0.121749 -0.034090
					CHANNELS 3 Zrotation Yrotation Xrotation
					JOINT LeftArm
					{
						OFFSET 0.090977 0.030469 -0.008868
						CHANNELS 3 Zrotation Yrotation Xrotation
						JOINT LeftForeArm
						{
							OFFSET 0.259612 -0.012772 -0.027456
							CHANNELS 3 Zrotation Yrotation Xrotation
							JOINT LeftHand
							{
								OFFSET 0.249234 0.008986 -0.001171
								CHANNELS 3 Zrotation Yrotation Xrotation
								End Site
								{
									OFFSET 0.000000 0.000000 0.000000
								}
							}
						}
					}
				}
				JOINT RightShoulder
				{
					OFFSET -0.081759 0.118833 -0.038615
					CHANNELS 3 Zrotation Yrotation Xrotation
					JOINT RightArm
					{
						OFFSET -0.096012 0.032551 -0.009143
						CHANNELS 3 Zrotation Yrotation Xrotation
						JOINT RightForeArm
						{
							OFFSET -0.253742 -0.013329 -0.021401
							CHANNELS 3 Zrotation Yrotation Xrotation
							JOINT RightHand
							{
								OFFSET -0.255298 0.007772 -0.005559
								CHANNELS 3 Zrotation Yrotation Xrotation
								End Site
								{
									OFFSET 0.000000 0.000000 0.000000
								}
							}
						}
					}
				}
			}
		}
	}
}
MOTION
Frames: 15
Frame Time: 0.050000
0.000000 0.878980 0.000000 0.392386 -5.499656 -7.818140 4.067085 -1.068322 -24.885912 -0.253900 -0.417480 39.341901 5.898246 12.812967 5.122827 0.000000 0.000000 0.000000 0.738948 2.963674 -24.890630 -0.420468 3.003299 40.690433 -6.048801 -14.056587 -3.550714 0.000000 0.000000 0.000000 6.645739 -2.071844 25.638204 -2.101592 1.169416 7.982153 -4.258690 4.760910 1.284435 9.578261 -9.305535 5.612769 0.000000 0.000000 0.000000 -17.274209 -22.921120 9.137480 -48.056356 -13.802707 0.194168 7.365877 -30.204799 -1.085474 0.000000 0.000000 0.000000 17.290045 17.067303 8.077051 48.272839 17.993164 2.442386 -6.105287 28.906708 -0.364919 0.000000 0.000000 0.000000 
0.006920 0.866681 0.007152 -0.545068 -7.319522 -6.763190 5.544008 -0.620319 -27.100134 -0.568046 0.090002 42.245240 6.276461 13.247034 3.354876 0.000000 0.000000 0.000000 1.496529 3.494584 -26.781616 -0.137315 3.386969 42.777703 -6.178607 -13.671574 -6.204200 0.000000 0.000000 0.000000 8.188618 -2.287665 25.504927 -2.273192 1.331209 8.273652 -5.381847 5.842163 2.150055 10.613685 -10.464186 6.024107 0.000000 0.000000 0.000000 -19.042235 -23.924303 9.737638 -45.798339 -15.142403 0.687503 9.556618 -27.352330 -1.514575 0.000000 0.000000 0.000000 16.710714 18.059786 8.737509 49.583956 19.532923 3.088126 -8.080117 27.058736 -0.720066 0.000000 0.000000 0.000000 
0.013625 0.855816 0.015170 -0.580509 -7.473492 -7.102611 4.728554 -0.836310 -28.289456 0.101525 -0.172621 45.705730 6.736979 13.969574 1.768807 0.000000 0.000000 0.000000 0.621812 3.544157 -28.315564 1.045877 3.233452 46.823998 -6.488953 -14.282465 -7.467767 0.000000 0.000000 0.000000 7.747759 -2.326395 27.401316 -1.993460 1.201007 9.210323 -5.737726 5.976316 1.102674 11.610368 -10.858089 4.411169 0.000000 0.000000 0.000000 -18.361723 -24.776304 9.979172 -46.408125 -16.095232 1.194735 7.684781 -25.122848 -0.981941 0.000000 0.000000 0.000000 17.866896 18.072791 8.971654 47.472358 19.822591 3.038019 -7.273588 28.223055 -0.584956 0.000000 0.000000 0.000000 
0.019788 0.847504 0.024758 -1.256704 -8.972654 -7.789895 4.898522 -0.654259 -27.371139 0.691173 -0.131475 47.444033 7.550013 15.370837 -1.176955 0.000000 0.000000 0.000000 1.838879 4.043920 -28.958025 0.603977 4.233730 50.239704 -6.520932 -14.155207 -8.031764 0.000000 0.000000 0.000000 7.782149 -2.236037 27.826503 -2.075105 1.375002 10.947344 -6.018476 5.392919 0.885724 11.132750 -10.449931 4.718972 0.000000 0.000000 0.000000 -18.692905 -25.171772 10.482374 -46.399317 -15.974143 1.102941 9.158713 -23.397411 -1.172741 0.000000 0.000000 0.000000 18.511041 19.434989 9.533653 47.072865 20.172064 3.220401 -7.597692 27.715367 -0.705046 0.000000 0.000000 0.000000 
0.025489 0.840363 0.035959 -1.714931 -8.657873 -8.063613 4.466188 -0.799727 -27.533834 1.243747 -0.503562 49.670471 7.783471 15.752765 -3.345381 0.000000 0.000000 0.000000 1.421365 3.855505 -28.566271 1.365798 3.867638 51.635104 -6.861834 -14.770345 -9.809898 0.000000 0.000000 0.000000 7.687226 -2.259902 28.088885 -1.904456 1.301388 12.107432 -5.810310 4.835856 -0.122885 11.194274 -10.287464 4.279776 0.000000 0.000000 0.000000 -20.150365 -25.636265 10.983844 -46.560543 -15.675417 1.110541 9.075465 -20.204086 -0.974999 0.000000 0.000000 0.000000 19.135318 19.219737 9.387245 47.170616 19.902868 3.247407 -7.894874 27.713360 -0.801350 0.000000 0.000000 0.000000 
0.030846 0.839677 0.049319 -2.326680 -8.508078 -8.331852 4.304408 -0.832093 -25.726755 1.588566 -0.772886 49.082947 8.056350 16.267634 -6.149127 0.000000 0.000000 0.000000 2.258112 3.925318 -27.850030 0.544224 4.446117 52.694770 -6.973057 -15.198016 -9.613457 0.000000 0.000000 0.000000 7.827448 -2.260214 27.382726 -1.599708 1.100510 12.278839 -6.317618 4.665591 -0.161187 11.464856 -10.889185 5.476060 0.000000 0.000000 0.000000 -20.179815 -25.455014 10.871944 -47.113701 -15.085593 0.892599 8.335335 -19.095279 -0.789781 0.000000 0.000000 0.000000 20.530230 19.068693 9.520177 47.792092 19.402241 3.086098 -7.615987 26.683836 -0.709958 0.000000 0.000000 0.000000 
0.036448 0.846152 0.063282 -2.274107 -8.338903 -8.332079 3.856618 -0.925814 -24.247559 1.207035 -0.576295 48.077880 8.113930 16.442880 -5.889124 0.000000 0.000000 0.000000 2.448738 3.685580 -26.247633 -0.798443 5.112601 51.597342 -6.845429 -14.900952 -9.053563 0.000000 0.000000 0.000000 7.476565 -2.074658 25.594375 -1.973763 1.352740 12.536107 -6.476447 4.115030 -0.045426 11.276317 -10.970950 6.455204 0.000000 0.000000 0.000000 -20.904034 -24.415235 10.537319 -47.406463 -13.585964 0.270341 7.916727 -19.174509 -0.709297 0.000000 0.000000 0.000000 21.134854 18.457155 9.103100 48.805989 17.587988 2.462196 -5.760604 27.217780 -0.335536 0.000000 0.000000 0.000000 
0.041835 0.859158 0.076221 -2.223981 -8.146593 -8.292874 3.606911 -0.920504 -21.541890 0.538426 -0.269222 44.713264 8.016203 16.313121 -5.087451 0.000000 0.000000 0.000000 2.442690 3.307925 -24.049336 -1.779796 5.413445 49.752416 -6.512792 -14.099351 -8.116810 0.000000 0.000000 0.000000 7.012608 -1.864347 23.644942 -1.627599 1.112058 12.210731 -7.058754 4.276835 0.153176 11.657114 -11.544988 7.052926 0.000000 0.000000 0.000000 -21.440587 -23.309165 9.894229 -47.959636 -11.468069 -0.564651 7.402981 -20.458246 -0.678299 0.000000 0.000000 0.000000 22.517082 17.234942 8.669040 49.577551 15.615038 1.624703 -4.652537 26.734663 -0.071567 0.000000 0.000000 0.000000 
0.046223 0.874316 0.086728 -2.158899 -7.612587 -7.860978 3.021076 -0.966739 -18.841083 0.382054 -0.326574 41.419244 7.309738 14.741895 -5.902014 0.000000 0.000000 0.000000 2.432202 2.972273 -22.119006 -2.645882 5.464769 47.514927 -6.247672 -13.674424 -6.853185 0.000000 0.000000 0.000000 6.837449 -1.703958 21.281356 -1.965510 1.326632 12.701752 -7.096983 4.105383 0.310213 11.316548 -11.193928 6.960400 0.000000 0.000000 0.000000 -21.195689 -22.785484 9.605379 -48.058651 -10.726430 -0.888337 6.368563 -22.147997 -0.534553 0.000000 0.000000 0.000000 22.620078 16.519373 8.273220 50.616656 14.240163 1.088730 -3.998683 26.243213 0.076085 0.000000 0.000000 0.000000 
0.049101 0.890621 0.094734 -2.209628 -7.472203 -7.714925 2.592849 -0.918147 -16.014254 0.359472 -0.372941 37.975629 6.902133 13.944358 -5.197516 0.000000 0.000000 0.000000 2.610425 2.741227 -20.471978 -2.992242 5.322681 45.482127 -6.051568 -13.745747 -4.477269 0.000000 0.000000 0.000000 6.734274 -1.589039 19.776117 -2.260294 1.465758 11.591305 -6.921845 4.331443 1.632550 11.112814 -10.773840 5.891610 0.000000 0.000000 0.000000 -21.034385 -22.369947 9.400901 -48.373924 -10.235469 -1.227657 5.964911 -23.192460 -0.470811 0.000000 0.000000 0.000000 22.073427 15.782369 7.836957 51.703036 13.153059 0.536496 -3.653291 26.469598 0.175493 0.000000 0.000000 0.000000 
0.050585 0.905461 0.100715 -2.494618 -7.214096 -7.325022 2.810228 -0.763582 -13.463335 0.356266 -0.448657 34.284274 6.039286 12.073523 -4.767295 0.000000 0.000000 0.000000 2.966828 2.593452 -19.199944 -3.314325 4.922336 42.096835 -6.055731 -14.681809 -0.534598 0.000000 0.000000 0.000000 6.738160 -1.481098 18.045650 -2.449717 1.536327 10.679147 -6.417125 4.234588 3.128660 10.457431 -9.978452 4.995265 0.000000 0.000000 0.000000 -20.796767 -21.857543 9.243494 -48.324222 -10.418770 -1.325253 5.185034 -23.854965 -0.298425 0.000000 0.000000 0.000000 21.782942 15.206182 7.444219 52.585525 12.284546 0.056136 -3.154285 26.588636 0.298964 0.000000 0.000000 0.000000 
0.051304 0.918285 0.105292 -2.657933 -7.161176 -7.001504 3.113616 -0.596591 -10.952323 0.299944 -0.453699 30.150426 5.259836 10.521542 -3.651661 0.000000 0.000000 0.000000 3.458135 2.416988 -17.612292 -4.235807 4.673534 37.472101 -6.106589 -15.647389 3.836534 0.000000 0.000000 0.000000 6.692111 -1.356039 16.388678 -2.460532 1.530504 10.397186 -6.171238 4.207593 3.851053 10.008865 -9.570449 4.925957 0.000000 0.000000 0.000000 -20.168587 -21.788039 9.228692 -48.763726 -10.628218 -1.345020 4.622779 -24.174922 -0.169669 0.000000 0.000000 0.000000 21.113901 14.558407 6.985005 53.414484 11.854865 -0.160875 -2.857497 26.624666 0.373020 0.000000 0.000000 0.000000 
0.051697 0.927383 0.109098 -2.614415 -7.052615 -6.760876 3.514112 -0.437686 -8.671717 0.187580 -0.429271 26.223850 4.134954 8.208950 -2.731690 0.000000 0.000000 0.000000 3.481963 2.164339 -15.983824 -4.969715 4.322675 33.012483 -6.076364 -16.175483 7.315967 0.000000 0.000000 0.000000 6.713538 -1.195993 14.279408 -2.708428 1.672567 10.223773 -5.718014 3.666941 4.789126 9.173247 -8.837484 5.056201 0.000000 0.000000 0.000000 -20.261072 -21.432494 9.303334 -48.672053 -10.939096 -1.359813 4.260387 -24.109487 -0.056074 0.000000 0.000000 0.000000 20.342277 14.092352 6.472353 54.351843 11.577102 -0.293533 -2.514714 26.752330 0.436408 0.000000 0.000000 0.000000 
0.052035 0.932604 0.112134 -2.586230 -7.228913 -6.654401 3.910039 -0.316848 -7.039132 -0.054514 -0.331440 23.431387 3.422137 6.865615 -1.810272 0.000000 0.000000 0.000000 3.491590 1.912021 -14.310914 -5.667536 4.093618 29.441951 -5.716258 -15.739701 8.745995 0.000000 0.000000 0.000000 6.661745 -1.038780 12.451935 -3.035464 1.899748 10.545174 -5.538479 3.646059 5.073359 8.590133 -8.267327 4.929156 0.000000 0.000000 0.000000 -19.797877 -21.316883 9.257660 -48.777513 -10.979850 -1.389164 3.996623 -23.946114 0.009415 0.000000 0.000000 0.000000 19.518226 13.530748 6.057479 55.523466 11.212486 -0.446088 -2.461429 26.802057 0.452358 0.000000 0.000000 0.000000 
0.052261 0.934961 0.114458 -2.461159 -7.171344 -6.926148 3.996265 -0.216999 -5.272554 -0.443370 -0.211143 21.099619 3.292998 6.620380 -1.700251 0.000000 0.000000 0.000000 3.238598 1.662649 -12.794511 -6.087185 3.943911 27.398312 -5.217443 -14.821518 8.884624 0.000000 0.000000 0.000000 6.665784 -0.930421 11.216402 -3.145126 1.956914 10.366661 -5.426628 3.483026 5.819850 8.494030 -8.028823 4.193844 0.000000 0.000000 0.000000 -19.396386 -21.393904 9.350947 -49.229972 -11.139709 -1.425250 3.793381 -23.331788 0.065243 0.000000 0.000000 0.000000 18.691478 13.175337 5.760803 56.526181 11.210285 -0.484774 -2.217379 26.354755 0.498782 0.000000 0.000000 0.000000 
